<?xml version="1.0" standalone="no"?>
<!DOCTYPE svg PUBLIC "-//W3C//DTD SVG 20010904//EN"
 "http://www.w3.org/TR/2001/REC-SVG-20010904/DTD/svg10.dtd">
<svg version="1.0" xmlns="http://www.w3.org/2000/svg"
 width="358.000000pt" height="293.000000pt" viewBox="0 0 358.000000 293.000000"
 preserveAspectRatio="xMidYMid meet">

<g transform="translate(0.000000,293.000000) scale(0.100000,-0.100000)"
fill="#000000" stroke="none">
<path d="M2181 1494 c-22 -10 -47 -13 -67 -10 -50 10 -234 -41 -234 -65 0 -5
25 -9 55 -9 57 0 116 19 146 46 16 14 20 14 46 -5 62 -45 190 -46 245 -1 l22
17 -34 18 c-46 24 -136 29 -179 9z"/>
<path d="M1690 1475 c-14 -8 -40 -14 -59 -15 -38 0 -101 -20 -101 -32 0 -11
59 -19 122 -15 60 4 100 24 118 57 10 18 8 20 -22 20 -18 -1 -44 -7 -58 -15z"/>
<path d="M2244 1376 c-29 -13 -69 -55 -60 -63 9 -10 246 36 246 48 0 23 -141
35 -186 15z"/>
<path d="M1542 1363 c-18 -8 -30 -18 -27 -21 8 -8 137 -31 178 -32 20 0 37 4
37 8 0 25 -78 62 -129 62 -14 0 -41 -8 -59 -17z"/>
<path d="M1875 1346 c-17 -7 -36 -20 -44 -29 -12 -16 -2 -17 129 -17 131 0
141 1 129 17 -34 41 -151 57 -214 29z"/>
<path d="M497 669 c-62 -33 -126 -135 -140 -224 -13 -82 32 -157 92 -154 23 2
24 2 4 6 -62 12 -81 105 -42 210 40 107 102 178 151 171 19 -2 23 -9 21 -36 0
-18 -9 -42 -19 -53 -14 -16 -15 -19 -2 -19 35 0 56 65 32 98 -19 27 -47 27
-97 1z"/>
<path d="M1743 679 c-18 -5 -35 -14 -38 -19 -8 -13 -4 -13 39 5 l36 15 -16
-37 c-32 -73 -94 -254 -94 -274 0 -43 24 -10 44 62 l22 74 44 6 c53 7 98 24
122 46 24 22 24 85 0 106 -26 24 -46 21 -22 -3 55 -55 -17 -140 -119 -140 -26
0 -26 0 7 85 24 61 31 71 57 76 27 6 26 7 -10 7 -22 0 -54 -4 -72 -9z"/>
<path d="M1090 563 c-16 -26 -32 -55 -36 -65 -3 -10 -13 -18 -22 -18 -13 0
-14 -2 -4 -8 16 -11 1 -55 -31 -92 -12 -14 -15 -19 -7 -13 11 11 16 8 26 -17
10 -23 19 -30 41 -29 27 0 27 1 6 9 -26 11 -30 41 -11 101 11 38 12 39 62 41
l51 2 -47 3 -47 4 35 57 c36 61 40 72 24 72 -6 0 -24 -21 -40 -47z"/>
<path d="M913 498 c-3 -17 -24 -49 -45 -70 -34 -34 -38 -44 -33 -69 11 -51 67
-65 107 -26 26 24 26 30 2 120 -8 31 -12 62 -9 67 3 6 1 10 -5 10 -6 0 -13
-14 -17 -32z m11 -60 c16 -61 0 -118 -34 -118 -24 0 -44 35 -34 58 4 9 8 19 8
22 2 10 41 59 47 60 4 0 9 -10 13 -22z"/>
<path d="M897 359 c7 -7 15 -10 18 -7 3 3 -2 9 -12 12 -14 6 -15 5 -6 -5z"/>
<path d="M1208 524 c-14 -13 -9 -54 6 -54 23 0 27 -31 11 -81 -19 -56 -14 -69
23 -68 17 1 21 3 10 6 -22 5 -22 9 -3 63 14 39 14 46 0 67 -9 12 -20 23 -25
23 -5 0 -10 12 -12 26 -2 14 -6 22 -10 18z"/>
<path d="M2758 524 c-16 -15 -8 -52 12 -57 24 -6 25 -28 3 -85 -18 -47 -11
-62 31 -62 18 0 18 1 3 13 -16 11 -15 15 0 59 l18 47 -27 28 c-14 15 -28 36
-30 46 -1 11 -6 15 -10 11z"/>
<path d="M2219 520 c-1 -3 -2 -17 -3 -31 -1 -18 3 -26 14 -25 15 1 16 -4 8
-104 -3 -31 0 -35 22 -38 18 -2 21 0 11 7 -9 6 -12 18 -7 37 19 76 18 82 -4
101 -12 10 -26 27 -30 38 -5 11 -10 18 -11 15z"/>
<path d="M1873 494 c44 -24 40 -76 -8 -120 -40 -36 -93 -54 -159 -54 -45 0
-61 -12 -30 -24 83 -32 244 58 244 135 0 19 -4 39 -8 45 -8 12 -46 34 -59 34
-4 -1 4 -8 20 -16z"/>
<path d="M687 475 c-41 -28 -80 -95 -75 -128 2 -15 11 -23 28 -25 18 -2 21 0
11 6 -23 16 -4 78 36 123 39 43 72 51 80 19 6 -22 23 -27 23 -7 0 42 -50 47
-103 12z"/>
<path d="M1420 485 c-8 -9 -10 -30 -6 -57 3 -24 7 -50 8 -58 2 -12 11 -14 38
-11 27 4 30 6 12 9 -16 2 -22 8 -18 18 4 9 2 12 -5 8 -6 -4 -15 0 -20 7 -15
24 -10 58 11 79 14 14 16 20 6 20 -7 0 -19 -7 -26 -15z"/>
<path d="M2418 478 c-22 -12 -46 -40 -61 -67 -23 -44 -24 -47 -8 -63 10 -10
26 -18 36 -18 18 0 18 1 1 13 -40 29 19 131 84 147 28 6 30 8 10 9 -14 0 -42
-9 -62 -21z"/>
<path d="M2613 481 c-17 -11 -43 -40 -58 -65 -25 -42 -73 -91 -81 -83 -2 2 3
24 12 50 8 25 14 56 12 69 -3 19 -8 14 -29 -29 -14 -29 -21 -49 -16 -46 6 4 8
-1 4 -11 -4 -10 -7 -22 -7 -27 0 -6 -12 -21 -27 -35 -19 -17 -21 -23 -8 -18
16 7 16 3 -6 -37 -18 -32 -31 -44 -47 -43 -15 0 -19 -3 -13 -9 19 -19 57 10
87 67 16 31 32 56 36 56 3 0 20 12 37 26 22 18 31 21 31 11 0 -21 34 -47 61
-46 l24 1 -25 7 c-17 5 -26 15 -28 32 -2 21 4 28 47 46 52 22 79 57 68 87 -8
21 -35 20 -74 -3z m61 0 c8 -13 -31 -59 -64 -76 -40 -21 -43 -19 -25 15 27 53
74 85 89 61z"/>
<path d="M493 483 c-27 -10 -11 -23 27 -23 27 0 40 -4 40 -14 0 -23 -22 -80
-43 -111 l-21 -30 22 19 c22 19 22 19 22 -2 0 -12 5 -22 10 -22 6 0 10 13 10
28 0 16 7 51 15 78 8 27 15 50 15 52 0 5 -68 32 -77 31 -4 0 -14 -3 -20 -6z"/>
<path d="M1974 435 c-19 -46 -18 -101 2 -109 28 -11 38 -6 19 8 -18 13 -18 19
-8 58 6 23 15 51 18 61 13 33 -16 17 -31 -18z"/>
<path d="M2076 422 c-25 -54 -18 -96 14 -99 14 -1 18 0 8 3 -22 7 -23 24 -3
71 28 68 11 91 -19 25z"/>
<path d="M1355 425 c-39 -64 -47 -79 -40 -73 5 5 13 -2 19 -15 7 -12 22 -23
36 -25 22 -2 23 -1 8 8 -22 13 -23 49 -4 95 17 40 4 47 -19 10z"/>
<path d="M737 403 c-20 -28 -24 -41 -16 -55 13 -24 39 -24 32 1 -3 10 2 32 11
49 23 44 3 48 -27 5z"/>
<path d="M2176 393 c-6 -14 -5 -15 5 -6 7 7 10 15 7 18 -3 3 -9 -2 -12 -12z"/>
<path d="M2691 367 c-29 -35 -30 -38 -7 -17 24 22 52 60 44 60 -2 0 -18 -19
-37 -43z"/>
<path d="M2859 353 c-13 -16 -12 -17 4 -4 16 13 21 21 13 21 -2 0 -10 -8 -17
-17z"/>
</g>
</svg>
